<svg width="48" height="48" viewBox="0 0 48 48" fill="none" xmlns="http://www.w3.org/2000/svg">
<rect width="48" height="48" rx="5" fill="#324EA3"/>
<path fill-rule="evenodd" clip-rule="evenodd" d="M23.5044 34.7336C17.2044 34.7336 13.3252 30.3003 13.3252 24.6711C13.3252 18.0211 18.6044 13.5586 24.6127 13.5586C30.3585 13.5586 34.646 17.0878 34.646 22.6586C34.646 27.7336 31.9627 29.7461 29.2794 29.7461C27.9669 29.7461 26.8877 29.1336 26.421 28.2586C25.5169 29.1336 24.146 29.6878 22.8335 29.6878C19.6252 29.6878 17.9919 27.4128 17.9919 24.6711C17.9919 21.1419 20.5585 18.2836 24.321 18.2836C25.4002 18.2836 26.2752 18.5753 26.946 19.0711L27.0627 18.5753H29.8335L28.4627 24.9919C28.2002 26.2753 28.4919 27.2961 29.746 27.2961C31.2919 27.2961 32.196 26.0128 32.196 22.6003C32.196 18.0503 28.6085 15.9211 24.5835 15.9211C20.0627 15.9211 15.8919 19.0419 15.8919 24.6711C15.8919 29.2794 18.8377 32.2836 23.5044 32.2836C25.2544 32.2836 27.0627 31.9044 28.6377 31.0878L29.6002 33.4503C27.7919 34.2669 25.4002 34.7336 23.5044 34.7336ZM23.3002 26.9461C24.0585 26.9461 24.8169 26.7419 25.4294 26.1294L26.3627 21.8128C25.8377 21.2586 25.0794 20.9961 24.3502 20.9961C22.4252 20.9961 21.0252 22.4836 21.0252 24.4378C21.0252 25.9544 21.7544 26.9461 23.3002 26.9461Z" fill="white"/>
</svg>
