<?xml version="1.0" encoding="utf-8"?>
<!-- Generator: Adobe Illustrator 23.1.0, SVG Export Plug-In . SVG Version: 6.00 Build 0)  -->
<svg version="1.1" id="Слой_1" xmlns="http://www.w3.org/2000/svg" xmlns:xlink="http://www.w3.org/1999/xlink" x="0px" y="0px"
	 viewBox="0 0 30 30" style="enable-background:new 0 0 30 30;" xml:space="preserve">
<style type="text/css">
	.st0{opacity:0.5;fill:#FFFFFF;enable-background:new    ;}
	.st1{fill-rule:evenodd;clip-rule:evenodd;fill:#FFFFFF;}
</style>
<circle class="st0" cx="15" cy="15.2" r="15"/>
<path class="st1" d="M15,17.4l-2.3,2.3c-0.6,0.6-1.6,0.6-2.3,0s-0.6-1.6,0-2.3l2.3-2.3l-2.3-2.3c-0.6-0.6-0.6-1.6,0-2.3
	s1.6-0.6,2.3,0l2.3,2.3l2.3-2.3c0.6-0.6,1.6-0.6,2.3,0s0.6,1.6,0,2.3l-2.3,2.3l2.3,2.3c0.6,0.6,0.6,1.6,0,2.3s-1.6,0.6-2.3,0
	L15,17.4z"/>
</svg>
