<svg width="20" height="20" viewBox="0 0 20 20" fill="none" xmlns="http://www.w3.org/2000/svg">
<path opacity="0.3" fill-rule="evenodd" clip-rule="evenodd" d="M5.46918 10L0.938363 5.46918C-0.312788 4.21803 -0.312788 2.18951 0.938363 0.938363C2.18951 -0.312788 4.21803 -0.312788 5.46918 0.938363L10 5.46918L14.5308 0.938363C15.782 -0.312788 17.8105 -0.312788 19.0616 0.938363C20.3128 2.18951 20.3128 4.21803 19.0616 5.46918L14.5308 10L19.0616 14.5308C20.3128 15.782 20.3128 17.8105 19.0616 19.0616C17.8105 20.3128 15.782 20.3128 14.5308 19.0616L10 14.5308L5.46918 19.0616C4.21803 20.3128 2.18951 20.3128 0.938363 19.0616C-0.312788 17.8105 -0.312788 15.782 0.938363 14.5308L5.46918 10Z" fill="#43425F"/>
</svg>
