<svg width="50" height="50" viewBox="0 0 50 50" fill="none" xmlns="http://www.w3.org/2000/svg">
<rect width="50" height="50" rx="12.5" fill="white"/>
<g filter="url(#filter0_d)">
<path d="M15.6925 10L25.0916 10C33.4259 10 36.1576 14.4615 36.1576 18.7692C36.1576 20.2564 36.1576 22.5343 33.5389 24.5128C36.5022 25.5897 37.5004 29.2308 37.5004 31.2821C37.5004 35.5385 34.7686 40 26.4344 40H15.6925C14.6275 40 13.8867 39.1282 13.8867 38.1026L13.8867 11.8974C13.8867 10.8718 14.6275 10 15.6925 10Z" fill="url(#paint0_linear)"/>
<path d="M13.1064 19.1458C13.1064 18.1573 14.2899 17.6493 15.0065 18.3303L21.477 24.4799C22.0821 25.055 22.1013 26.0135 21.5197 26.6123L15.0385 33.2854C14.3346 34.01 13.1064 33.5118 13.1064 32.5016V19.1458Z" fill="#1C347F"/>
<path d="M12.0459 17.7222C12.0459 16.7227 13.2521 16.2195 13.9624 16.9227L20.8176 23.7094C21.4106 24.2964 21.4106 25.2544 20.8176 25.8414L13.9624 32.6281C13.2521 33.3313 12.0459 32.8281 12.0459 31.8286V17.7222Z" fill="url(#paint1_linear)"/>
</g>
<defs>
<filter id="filter0_d" x="9.0459" y="9" width="31.4545" height="36" filterUnits="userSpaceOnUse" color-interpolation-filters="sRGB">
<feFlood flood-opacity="0" result="BackgroundImageFix"/>
<feColorMatrix in="SourceAlpha" type="matrix" values="0 0 0 0 0 0 0 0 0 0 0 0 0 0 0 0 0 0 127 0"/>
<feOffset dy="2"/>
<feGaussianBlur stdDeviation="1.5"/>
<feColorMatrix type="matrix" values="0 0 0 0 0 0 0 0 0 0 0 0 0 0 0 0 0 0 0.2 0"/>
<feBlend mode="normal" in2="BackgroundImageFix" result="effect1_dropShadow"/>
<feBlend mode="normal" in="SourceGraphic" in2="effect1_dropShadow" result="shape"/>
</filter>
<linearGradient id="paint0_linear" x1="37.5004" y1="10" x2="13.8867" y2="10" gradientUnits="userSpaceOnUse">
<stop stop-color="#3F72D7"/>
<stop offset="1" stop-color="#324EA3"/>
</linearGradient>
<linearGradient id="paint1_linear" x1="12.0459" y1="15.0254" x2="12.0459" y2="34.5254" gradientUnits="userSpaceOnUse">
<stop stop-color="#FDC2A1"/>
<stop offset="1" stop-color="#FA8F68"/>
</linearGradient>
</defs>
</svg>
