<svg width="26" height="16" viewBox="0 0 26 16" fill="none" xmlns="http://www.w3.org/2000/svg">
<g opacity="0.5">
<path fill-rule="evenodd" clip-rule="evenodd" d="M22.75 6.4002V3.2002H21.125V6.4002H17.875V8.0002H21.125V11.2002H22.75V8.0002H26V6.4002H22.75Z" fill="white"/>
<path fill-rule="evenodd" clip-rule="evenodd" d="M8.125 6.4V9.6H12.7221C12.051 11.4624 10.244 12.8 8.125 12.8C5.43725 12.8 3.25 10.6464 3.25 8C3.25 5.3536 5.43725 3.2 8.125 3.2C9.29012 3.2 10.4114 3.6112 11.2824 4.3584L13.4176 1.9456C11.9551 0.6912 10.0766 0 8.125 0C3.64488 0 0 3.5888 0 8C0 12.4112 3.64488 16 8.125 16C12.6051 16 16.25 12.4112 16.25 8V6.4H8.125Z" fill="white"/>
</g>
</svg>
