<svg width="58" height="58" viewBox="0 0 58 58" fill="none" xmlns="http://www.w3.org/2000/svg">
<rect width="58" height="58" rx="6.04167" fill="white"/>
<path fill-rule="evenodd" clip-rule="evenodd" d="M17.5482 26.5052C17.142 26.099 17.2901 25.409 17.8272 25.2052L40.2957 16.6827C40.9338 16.4407 41.5587 17.0656 41.3167 17.7037L32.7941 40.1722C32.5904 40.7093 31.9004 40.8574 31.4941 40.4512L25.8276 34.7847L38.4567 19.5427L23.2147 32.1718L17.5482 26.5052Z" fill="#324EA3"/>
<path opacity="0.5" fill-rule="evenodd" clip-rule="evenodd" d="M13.326 31.2394C12.7077 31.8578 12.7077 32.8603 13.326 33.4786C13.9443 34.0969 14.9468 34.0969 15.5652 33.4786L16.6848 32.359C17.3031 31.7407 17.3031 30.7382 16.6848 30.1198C16.0664 29.5015 15.0639 29.5015 14.4456 30.1198L13.326 31.2394ZM15.5652 42.4353C14.9468 41.817 14.9468 40.8144 15.5652 40.1961L20.0435 35.7178C20.6618 35.0994 21.6644 35.0994 22.2827 35.7178C22.901 36.3361 22.901 37.3386 22.2827 37.9569L17.8043 42.4353C17.186 43.0536 16.1835 43.0536 15.5652 42.4353ZM24.5219 44.6745C23.9035 44.0561 23.9035 43.0536 24.5219 42.4353L25.6414 41.3157C26.2598 40.6974 27.2623 40.6974 27.8806 41.3157C28.4989 41.934 28.4989 42.9365 27.8806 43.5549L26.761 44.6745C26.1427 45.2928 25.1402 45.2928 24.5219 44.6745Z" fill="#324EA3"/>
</svg>
