<svg width="18" height="18" viewBox="0 0 18 18" fill="none" xmlns="http://www.w3.org/2000/svg">
<g opacity="0.5">
<path fill-rule="evenodd" clip-rule="evenodd" d="M5.625 0H12.375C15.4811 0 18 2.51887 18 5.625V12.375C18 15.4811 15.4811 18 12.375 18H5.625C2.51887 18 0 15.4811 0 12.375V5.625C0 2.51887 2.51887 0 5.625 0ZM12.375 16.3125C14.5463 16.3125 16.3125 14.5463 16.3125 12.375V5.625C16.3125 3.45375 14.5463 1.6875 12.375 1.6875H5.625C3.45375 1.6875 1.6875 3.45375 1.6875 5.625V12.375C1.6875 14.5463 3.45375 16.3125 5.625 16.3125H12.375Z" fill="white"/>
<path fill-rule="evenodd" clip-rule="evenodd" d="M4.5 9C4.5 6.51487 6.51487 4.5 9 4.5C11.4851 4.5 13.5 6.51487 13.5 9C13.5 11.4851 11.4851 13.5 9 13.5C6.51487 13.5 4.5 11.4851 4.5 9ZM6.1875 9C6.1875 10.5503 7.44975 11.8125 9 11.8125C10.5503 11.8125 11.8125 10.5503 11.8125 9C11.8125 7.44863 10.5503 6.1875 9 6.1875C7.44975 6.1875 6.1875 7.44863 6.1875 9Z" fill="white"/>
<circle cx="13.8379" cy="4.16213" r="0.599625" fill="white"/>
</g>
</svg>
