<svg width="214" height="60" viewBox="0 0 214 60" fill="none" xmlns="http://www.w3.org/2000/svg">
<rect width="60" height="60" rx="15" fill="white"/>
<g filter="url(#filter0_d)">
<path d="M18.831 12L30.11 12C40.111 12 43.3892 17.3538 43.3892 22.5231C43.3892 24.3077 43.3892 27.0411 40.2467 29.4154C43.8026 30.7077 45.0005 35.0769 45.0005 37.5385C45.0005 42.6462 41.7223 48 31.7212 48L18.831 48C17.553 48 16.6641 46.9538 16.6641 45.7231L16.6641 14.2769C16.6641 13.0462 17.553 12 18.831 12Z" fill="url(#paint0_linear)"/>
<path d="M15.7275 22.9755C15.7275 21.7893 17.1477 21.1798 18.0076 21.997L25.7722 29.3765C26.4983 30.0666 26.5213 31.2168 25.8234 31.9354L18.046 39.943C17.2014 40.8126 15.7275 40.2147 15.7275 39.0025V22.9755Z" fill="#1C347F"/>
<path d="M14.4541 21.2664C14.4541 20.067 15.9015 19.4632 16.7539 20.3071L24.9802 28.4511C25.6917 29.1555 25.6917 30.3051 24.9802 31.0094L16.7539 39.1535C15.9015 39.9974 14.4541 39.3936 14.4541 38.1941V21.2664Z" fill="url(#paint1_linear)"/>
</g>
<path fill-rule="evenodd" clip-rule="evenodd" d="M96.7741 23.987C96.7741 26.0608 95.944 27.7801 94.4993 28.7408C94.4793 28.7541 94.4517 28.7717 94.4248 28.7888C94.3861 28.8133 94.3901 28.8712 94.4317 28.8902C94.4649 28.9053 94.4998 28.9213 94.5245 28.933C96.7031 29.9695 97.8397 32.0088 97.8397 34.5727C97.8397 39.2234 94.7117 42 89.4183 42H80.4812C80.1719 42 80 41.8265 80 41.4794V17.705C80 17.3579 80.1719 17.1844 80.4812 17.1844H89.4183C94.0587 17.1844 96.7741 19.6833 96.7741 23.987ZM83.8653 37.9318C83.8653 38.0894 83.993 38.2171 84.1506 38.2171H89.2721C91.6766 38.2171 93.3798 37.1942 93.3798 34.5685C93.3798 32.4203 92.1107 30.954 89.2387 30.954H84.1506C83.993 30.954 83.8653 31.0817 83.8653 31.2393V37.9318ZM92.4878 24.1273C92.4878 21.9855 91.1003 20.9672 89.2389 20.9672H84.1506C83.993 20.9672 83.8653 21.095 83.8653 21.2525V27.0372C83.8653 27.1947 83.993 27.3225 84.1506 27.3225H89.2389C91.1341 27.3225 92.4878 26.3393 92.4878 24.1273ZM105.083 41.8789H101.979C101.657 41.8789 101.443 41.6974 101.443 41.3342V23.8785C101.443 23.5517 101.657 23.3701 101.979 23.3701H105.083C105.404 23.3701 105.582 23.5517 105.582 23.8785V41.3342C105.582 41.6974 105.404 41.8789 105.083 41.8789ZM101.92 21.133C101.625 21.102 101.408 20.8512 101.408 20.5549V19.1111V17.6674C101.408 17.371 101.625 17.1202 101.92 17.0893C102.318 17.0475 102.897 17 103.477 17C104.057 17 104.637 17.0475 105.034 17.0893C105.329 17.1202 105.546 17.371 105.546 17.6674V19.1111V20.5549C105.546 20.8512 105.329 21.102 105.034 21.133C104.637 21.1748 104.057 21.2223 103.477 21.2223C102.897 21.2223 102.318 21.1748 101.92 21.133ZM113.961 34.7611C113.961 36.7585 114.96 37.9206 116.78 37.9206C117.101 37.9206 117.226 37.8842 117.796 37.8479C118.153 37.8479 118.575 38.0811 118.665 38.3563C118.665 38.3563 118.813 38.9134 118.813 39.7363C118.813 40.5593 118.665 41.1163 118.665 41.1163C118.522 41.4694 118.522 41.6611 118.165 41.6974C117.559 41.7337 116.958 41.77 116.423 41.77C112.712 41.77 109.822 39.8453 109.822 35.0516V17.5475C109.822 17.2207 110 17.0391 110.357 17.0391H113.366C113.652 17.0391 113.866 17.2207 113.901 17.5112C113.901 17.5112 113.916 21.3365 113.923 22.6439C113.923 22.6826 113.923 22.7316 113.924 22.7827C113.924 22.9469 114.058 23.0796 114.222 23.0796C114.229 23.0796 114.235 23.0796 114.241 23.0796C115.408 23.0796 118.04 23.0796 118.04 23.0796C118.361 23.0796 118.506 23.234 118.575 23.588C118.575 23.588 118.724 24.1817 118.724 25.0648C118.724 25.948 118.575 26.5417 118.575 26.5417C118.495 26.9188 118.361 27.0501 118.04 27.0501C118.04 27.0501 115.379 27.0501 114.196 27.0501C114.066 27.0501 113.961 27.1556 113.961 27.2857C113.961 29.7775 113.961 34.7611 113.961 34.7611ZM126.359 23.5007C126.359 23.7128 126.575 23.8572 126.773 23.781C126.839 23.7556 126.902 23.7318 126.954 23.7136C127.927 23.3695 129.033 23.1462 130.213 23.1462C134.708 23.1462 138.027 24.6191 138.027 32.0858C138.027 39.5526 134.53 41.9213 129.82 41.9213C127.501 41.9213 124.754 41.4129 122.649 40.614C122.328 40.505 122.221 40.3234 122.221 39.9966V17.5778C122.221 17.2146 122.399 17.033 122.756 17.033H125.824C126.181 17.033 126.359 17.2146 126.359 17.5778C126.359 17.5778 126.359 21.222 126.359 23.3467C126.359 23.3905 126.359 23.444 126.359 23.5007ZM129.713 38.2958C132.282 38.2958 133.816 36.6794 133.816 32.4066C133.816 28.1338 132.354 26.7354 129.785 26.7354C128.638 26.7354 127.619 26.995 126.793 27.4266C126.712 27.4686 126.594 27.5378 126.502 27.5932C126.413 27.6464 126.359 27.7426 126.359 27.8461V37.5816C126.359 37.7055 126.436 37.8166 126.552 37.8585C126.666 37.8995 126.808 37.9482 126.908 37.9763C127.716 38.2019 128.738 38.2958 129.713 38.2958ZM153.47 22.9767H156.574C156.895 22.9767 157.109 23.1583 157.109 23.4851V39.815C157.109 40.1419 156.966 40.3597 156.717 40.4687C154.683 41.3766 152.221 41.9213 149.724 41.9213C144.871 41.9213 141.553 39.5608 141.553 33.7503V23.4851C141.553 23.1583 141.731 22.9767 142.088 22.9767H145.192C145.513 22.9767 145.692 23.1583 145.692 23.4851V33.6777C145.692 37.0913 147.19 38.1445 149.724 38.1445C150.72 38.1445 151.767 38.0405 152.563 37.8324C152.578 37.8286 152.593 37.8244 152.609 37.8199C152.826 37.7591 152.97 37.5564 152.97 37.3311C152.97 32.6149 152.97 23.4851 152.97 23.4851C152.97 23.1583 153.149 22.9767 153.47 22.9767ZM164.691 41.8487H161.623C161.266 41.8487 161.087 41.6671 161.087 41.304V24.6714C161.087 24.3809 161.194 24.163 161.48 24.0177C163.549 23.1098 166.047 22.6014 168.58 22.6014C173.504 22.6014 176.858 24.9256 176.858 30.7361V41.304C176.858 41.6671 176.679 41.8487 176.358 41.8487H173.254C172.933 41.8487 172.719 41.6671 172.719 41.304V30.8088C172.719 27.3951 171.185 26.3783 168.58 26.3783C167.584 26.3783 166.517 26.5006 165.712 26.6649C165.702 26.6669 165.692 26.6691 165.681 26.6714C165.413 26.7283 165.226 26.9705 165.226 27.2448C165.226 27.2698 165.226 27.2932 165.226 27.3142C165.226 31.9774 165.226 41.304 165.226 41.304C165.226 41.6671 165.048 41.8487 164.691 41.8487ZM194.579 39.9179C192.759 41.2253 190.761 41.9516 188.263 41.9516C183.268 41.9516 180.271 39.1916 180.271 32.2432C180.271 25.2948 183.304 22.5712 188.228 22.5712C190.297 22.5712 192.259 23.1522 194.079 24.3143C194.364 24.4959 194.309 24.6849 194.222 25.0769C194.222 25.0769 193.936 25.9243 193.704 26.2875C193.472 26.6506 192.83 27.2559 192.83 27.2559C192.538 27.4811 192.402 27.5827 192.081 27.4011C190.975 26.7475 189.655 26.348 188.335 26.348C185.801 26.348 184.41 27.6553 184.41 32.2614C184.41 36.8674 185.837 38.1748 188.299 38.1748C189.655 38.1748 191.118 37.739 192.438 36.8674C192.759 36.6858 192.83 36.6858 193.187 37.0127C193.187 37.0127 193.835 37.6784 194.085 38.0416C194.335 38.4048 194.686 39.1916 194.686 39.1916C194.802 39.6099 194.864 39.7 194.579 39.9179ZM202.369 23.5093C202.369 23.6785 202.534 23.7962 202.696 23.7458C203.67 23.4415 204.846 23.237 206.222 23.237C210.575 23.237 214 25.5975 214 31.4443V41.3342C214 41.6974 213.822 41.8789 213.5 41.8789H210.396C210.075 41.8789 209.861 41.6974 209.861 41.3342V31.5532C209.861 28.0669 208.434 27.0138 205.794 27.0138C204.805 27.0138 203.817 27.1428 203.023 27.4009C202.937 27.429 202.827 27.4719 202.722 27.5151C202.505 27.6041 202.369 27.818 202.369 28.0523C202.369 28.1321 202.369 28.2101 202.369 28.2702C202.369 32.8266 202.369 41.3342 202.369 41.3342C202.369 41.6974 202.19 41.8789 201.833 41.8789H198.765C198.408 41.8789 198.23 41.6974 198.23 41.3342V17.6686C198.23 17.3054 198.408 17.1238 198.765 17.1238H201.833C202.19 17.1238 202.369 17.3054 202.369 17.6686C202.369 17.6686 202.369 21.3075 202.369 23.4297C202.369 23.453 202.369 23.4802 202.369 23.5093Z" fill="white"/>
<defs>
<filter id="filter0_d" x="10.4541" y="10" width="38.5464" height="44" filterUnits="userSpaceOnUse" color-interpolation-filters="sRGB">
<feFlood flood-opacity="0" result="BackgroundImageFix"/>
<feColorMatrix in="SourceAlpha" type="matrix" values="0 0 0 0 0 0 0 0 0 0 0 0 0 0 0 0 0 0 127 0"/>
<feOffset dy="2"/>
<feGaussianBlur stdDeviation="2"/>
<feColorMatrix type="matrix" values="0 0 0 0 0 0 0 0 0 0 0 0 0 0 0 0 0 0 0.2 0"/>
<feBlend mode="normal" in2="BackgroundImageFix" result="effect1_dropShadow"/>
<feBlend mode="normal" in="SourceGraphic" in2="effect1_dropShadow" result="shape"/>
</filter>
<linearGradient id="paint0_linear" x1="45.0005" y1="12" x2="16.6641" y2="12" gradientUnits="userSpaceOnUse">
<stop stop-color="#3F72D7"/>
<stop offset="1" stop-color="#324EA3"/>
</linearGradient>
<linearGradient id="paint1_linear" x1="14.4541" y1="18.0303" x2="14.4541" y2="41.4303" gradientUnits="userSpaceOnUse">
<stop stop-color="#FDC2A1"/>
<stop offset="1" stop-color="#FA8F68"/>
</linearGradient>
</defs>
</svg>
