<svg width="80" height="24" viewBox="0 0 80 24" fill="none" xmlns="http://www.w3.org/2000/svg">
<rect width="80" height="24" rx="2" fill="white"/>
<path d="M10.4434 7.46875L13.2324 14.4297L16.0215 7.46875H17.4805V16H16.3555V12.6777L16.4609 9.0918L13.6602 16H12.7988L10.0039 9.10938L10.1152 12.6777V16H8.99023V7.46875H10.4434ZM19.0098 12.7715C19.0098 12.1504 19.1309 11.5918 19.373 11.0957C19.6191 10.5996 19.959 10.2168 20.3926 9.94727C20.8301 9.67773 21.3281 9.54297 21.8867 9.54297C22.75 9.54297 23.4473 9.8418 23.9785 10.4395C24.5137 11.0371 24.7812 11.832 24.7812 12.8242V12.9004C24.7812 13.5176 24.6621 14.0723 24.4238 14.5645C24.1895 15.0527 23.8516 15.4336 23.4102 15.707C22.9727 15.9805 22.4688 16.1172 21.8984 16.1172C21.0391 16.1172 20.3418 15.8184 19.8066 15.2207C19.2754 14.623 19.0098 13.832 19.0098 12.8477V12.7715ZM20.0996 12.9004C20.0996 13.6035 20.2617 14.168 20.5859 14.5938C20.9141 15.0195 21.3516 15.2324 21.8984 15.2324C22.4492 15.2324 22.8867 15.0176 23.2109 14.5879C23.5352 14.1543 23.6973 13.5488 23.6973 12.7715C23.6973 12.0762 23.5312 11.5137 23.1992 11.084C22.8711 10.6504 22.4336 10.4336 21.8867 10.4336C21.3516 10.4336 20.9199 10.6465 20.5918 11.0723C20.2637 11.498 20.0996 12.1074 20.0996 12.9004ZM28.3965 12.8184H25.5371V11.9336H28.3965V12.8184ZM34.332 12.2324H30.752V16H29.627V7.46875H34.9121V8.39453H30.752V11.3125H34.332V12.2324ZM39.002 10.6328C38.8379 10.6055 38.6602 10.5918 38.4688 10.5918C37.7578 10.5918 37.2754 10.8945 37.0215 11.5V16H35.9375V9.66016H36.9922L37.0098 10.3926C37.3652 9.82617 37.8691 9.54297 38.5215 9.54297C38.7324 9.54297 38.8926 9.57031 39.002 9.625V10.6328Z" fill="#091540"/>
<path d="M47.0234 12.25C46.7969 12.5195 46.5254 12.7363 46.209 12.9004C45.8965 13.0645 45.5527 13.1465 45.1777 13.1465C44.6855 13.1465 44.2559 13.0254 43.8887 12.7832C43.5254 12.541 43.2441 12.2012 43.0449 11.7637C42.8457 11.3223 42.7461 10.8359 42.7461 10.3047C42.7461 9.73438 42.8535 9.2207 43.0684 8.76367C43.2871 8.30664 43.5957 7.95703 43.9941 7.71484C44.3926 7.47266 44.8574 7.35156 45.3887 7.35156C46.2324 7.35156 46.8965 7.66797 47.3809 8.30078C47.8691 8.92969 48.1133 9.78906 48.1133 10.8789V11.1953C48.1133 12.8555 47.7852 14.0684 47.1289 14.834C46.4727 15.5957 45.4824 15.9863 44.1582 16.0059H43.9473V15.0918H44.1758C45.0703 15.0762 45.7578 14.8438 46.2383 14.3945C46.7188 13.9414 46.9805 13.2266 47.0234 12.25ZM45.3535 12.25C45.7168 12.25 46.0508 12.1387 46.3555 11.916C46.6641 11.6934 46.8887 11.418 47.0293 11.0898V10.6562C47.0293 9.94531 46.875 9.36719 46.5664 8.92188C46.2578 8.47656 45.8672 8.25391 45.3945 8.25391C44.918 8.25391 44.5352 8.4375 44.2461 8.80469C43.957 9.16797 43.8125 9.64844 43.8125 10.2461C43.8125 10.8281 43.9512 11.3086 44.2285 11.6875C44.5098 12.0625 44.8848 12.25 45.3535 12.25ZM51.9746 12.8184H49.1152V11.9336H51.9746V12.8184ZM56.4863 16H55.3965V8.77539L53.2109 9.57812V8.59375L56.3164 7.42773H56.4863V16ZM64.8359 9.69531C64.8359 10.1211 64.7227 10.5 64.4961 10.832C64.2734 11.1641 63.9707 11.4238 63.5879 11.6113C64.0332 11.8027 64.3848 12.082 64.6426 12.4492C64.9043 12.8164 65.0352 13.2324 65.0352 13.6973C65.0352 14.4355 64.7852 15.0234 64.2852 15.4609C63.7891 15.8984 63.1348 16.1172 62.3223 16.1172C61.502 16.1172 60.8438 15.8984 60.3477 15.4609C59.8555 15.0195 59.6094 14.4316 59.6094 13.6973C59.6094 13.2363 59.7344 12.8203 59.9844 12.4492C60.2383 12.0781 60.5879 11.7969 61.0332 11.6055C60.6543 11.418 60.3555 11.1582 60.1367 10.8262C59.918 10.4941 59.8086 10.1172 59.8086 9.69531C59.8086 8.97656 60.0391 8.40625 60.5 7.98438C60.9609 7.5625 61.5684 7.35156 62.3223 7.35156C63.0723 7.35156 63.6777 7.5625 64.1387 7.98438C64.6035 8.40625 64.8359 8.97656 64.8359 9.69531ZM63.9512 13.6738C63.9512 13.1973 63.7988 12.8086 63.4941 12.5078C63.1934 12.207 62.7988 12.0566 62.3105 12.0566C61.8223 12.0566 61.4297 12.2051 61.1328 12.502C60.8398 12.7988 60.6934 13.1895 60.6934 13.6738C60.6934 14.1582 60.8359 14.5391 61.1211 14.8164C61.4102 15.0938 61.8105 15.2324 62.3223 15.2324C62.8301 15.2324 63.2285 15.0938 63.5176 14.8164C63.8066 14.5352 63.9512 14.1543 63.9512 13.6738ZM62.3223 8.24219C61.8965 8.24219 61.5508 8.375 61.2852 8.64062C61.0234 8.90234 60.8926 9.25977 60.8926 9.71289C60.8926 10.1465 61.0215 10.498 61.2793 10.7676C61.541 11.0332 61.8887 11.166 62.3223 11.166C62.7559 11.166 63.1016 11.0332 63.3594 10.7676C63.6211 10.498 63.752 10.1465 63.752 9.71289C63.752 9.2793 63.6172 8.92578 63.3477 8.65234C63.0781 8.37891 62.7363 8.24219 62.3223 8.24219Z" fill="#8B0BFF"/>
</svg>
