<svg width="186" height="185" viewBox="0 0 186 185" fill="none" xmlns="http://www.w3.org/2000/svg">
<g filter="url(#filter0_d)">
<rect x="12.0869" y="80.5" width="100" height="100" rx="6" transform="rotate(-45 12.0869 80.5)" fill="white"/>
</g>
<path opacity="0.3" fill-rule="evenodd" clip-rule="evenodd" d="M60.3386 72.1272L56.9156 75.5502C54.9985 77.4674 54.9985 80.5756 56.9156 82.4927L84.6856 110.263C86.6027 112.18 89.711 112.18 91.6281 110.263L112.263 89.6281C114.18 87.711 114.18 84.6027 112.263 82.6856L84.4928 54.9156C82.5756 52.9985 79.4674 52.9985 77.5502 54.9156L74.1272 58.3386L74.995 59.2064C76.4329 60.6443 76.441 62.9674 75.0131 64.3952L66.3952 73.0131C64.9674 74.4409 62.6443 74.4328 61.2064 72.995L60.3386 72.1272Z" fill="#324EA3"/>
<path fill-rule="evenodd" clip-rule="evenodd" d="M67.2207 61.773L69.8001 59.1936C70.2793 58.7144 71.0564 58.7144 71.5357 59.1936L73.2713 60.9293C73.7506 61.4085 73.7506 62.1856 73.2713 62.6649L64.6655 71.2707C64.1862 71.75 63.4092 71.75 62.9299 71.2707L61.1943 69.5351C60.715 69.0558 60.715 68.2787 61.1943 67.7995L63.7736 65.2201C62.815 64.2616 62.8096 62.7128 63.7615 61.7609C64.7134 60.809 66.2622 60.8144 67.2207 61.773Z" fill="#324EA3"/>
<path fill-rule="evenodd" clip-rule="evenodd" d="M94.2692 92.0644L94.1828 92.1481C92.8344 93.4204 90.9645 93.398 89.7364 92.0955C88.5293 90.8154 88.5727 88.9664 89.8398 87.6993L89.9171 87.6246C91.303 86.3168 93.153 86.3401 94.4169 87.6796C95.6266 88.9643 95.5664 90.7671 94.2692 92.0644Z" fill="#324EA3"/>
<path fill-rule="evenodd" clip-rule="evenodd" d="M89.0586 75.8306C89.1795 76.5678 89.0347 77.7782 88.833 79.284L88.529 80.8605C88.4062 81.7699 88.4647 82.4514 88.7119 82.9324C88.9064 83.3111 88.937 83.4322 89.512 84.0233C89.5932 84.106 89.5926 84.2387 89.5106 84.3207L86.3667 87.4647C86.2039 87.6275 85.9385 87.6229 85.7814 87.4545C84.6014 86.1867 83.9122 85.4359 83.8348 84.3235C83.7124 82.5773 84.373 79.656 84.4011 79.532C84.4683 79.086 84.4689 78.654 84.3996 78.2624C84.2672 77.3764 84.0332 76.8087 83.6392 76.4148C83.0926 75.8682 82.4215 75.528 81.6442 75.4052C80.8953 75.2853 80.0778 75.6629 79.2137 76.5271C78.3565 77.3842 78.0363 78.2376 78.2322 79.1356C78.4335 80.059 78.8416 80.8322 79.445 81.4356C79.5279 81.5185 79.5279 81.6528 79.445 81.7357L76.0503 85.1304C75.9648 85.2158 75.8254 85.2129 75.7437 85.1238C73.6169 82.8061 72.826 80.3967 73.3918 77.9635C73.7395 76.4268 74.6104 74.9531 75.9783 73.5852C77.7689 71.7945 79.707 70.7094 81.7382 70.3604C83.7962 70.0069 85.6843 70.6717 87.3494 72.3368C88.2808 73.2682 88.8556 74.4433 89.0586 75.8306Z" fill="#324EA3"/>
<defs>
<filter id="filter0_d" x="0.572266" y="0.274414" width="184.451" height="184.451" filterUnits="userSpaceOnUse" color-interpolation-filters="sRGB">
<feFlood flood-opacity="0" result="BackgroundImageFix"/>
<feColorMatrix in="SourceAlpha" type="matrix" values="0 0 0 0 0 0 0 0 0 0 0 0 0 0 0 0 0 0 127 0"/>
<feOffset dx="10" dy="12"/>
<feGaussianBlur stdDeviation="12"/>
<feColorMatrix type="matrix" values="0 0 0 0 0.313726 0 0 0 0 0.341176 0 0 0 0 0.368627 0 0 0 0.1 0"/>
<feBlend mode="normal" in2="BackgroundImageFix" result="effect1_dropShadow"/>
<feBlend mode="normal" in="SourceGraphic" in2="effect1_dropShadow" result="shape"/>
</filter>
</defs>
</svg>
