<svg width="148" height="149" viewBox="0 0 148 149" fill="none" xmlns="http://www.w3.org/2000/svg">
<g filter="url(#filter0_d)">
<rect x="14" y="12.2891" width="100" height="100" rx="6" fill="white"/>
</g>
<path fill-rule="evenodd" clip-rule="evenodd" d="M90.3102 77.9411C91.1312 78.7658 92.5392 78.1815 92.5351 77.0178L92.4919 64.8363V45.0995C92.4919 41.466 89.5595 38.5205 85.9422 38.5205H55.3769C51.7596 38.5205 48.8271 41.466 48.8271 45.0995V54.1455H66.521C70.8357 54.1455 74.3335 57.6433 74.3335 61.958V71.4152H83.8134L90.3102 77.9411Z" fill="#324EA3"/>
<path opacity="0.3" fill-rule="evenodd" clip-rule="evenodd" d="M37.998 77.5837V64.5628C37.998 61.6863 40.3195 59.3545 43.1832 59.3545H63.924C66.7877 59.3545 69.1092 61.6863 69.1092 64.5628V77.5837C69.1092 80.4601 66.7877 82.792 63.924 82.792H43.4833L40.2704 85.8809C39.443 86.6763 38.0658 86.09 38.0658 84.9423V78.4281C38.0212 78.1532 37.998 77.8712 37.998 77.5837ZM48.4072 68.4691C48.4072 67.75 48.9901 67.167 49.7092 67.167H62.6606C63.3798 67.167 63.9627 67.75 63.9627 68.4691C63.9627 69.1882 63.3798 69.7712 62.6606 69.7712H49.7092C48.9901 69.7712 48.4072 69.1882 48.4072 68.4691ZM57.487 72.3753C56.7679 72.3753 56.1849 72.9583 56.1849 73.6774C56.1849 74.3965 56.7679 74.9795 57.487 74.9795H62.6606C63.3798 74.9795 63.9627 74.3965 63.9627 73.6774C63.9627 72.9583 63.3798 72.3753 62.6606 72.3753H57.487Z" fill="#324EA3"/>
<defs>
<filter id="filter0_d" x="0" y="0.289062" width="148" height="148" filterUnits="userSpaceOnUse" color-interpolation-filters="sRGB">
<feFlood flood-opacity="0" result="BackgroundImageFix"/>
<feColorMatrix in="SourceAlpha" type="matrix" values="0 0 0 0 0 0 0 0 0 0 0 0 0 0 0 0 0 0 127 0"/>
<feOffset dx="10" dy="12"/>
<feGaussianBlur stdDeviation="12"/>
<feColorMatrix type="matrix" values="0 0 0 0 0.313726 0 0 0 0 0.341176 0 0 0 0 0.368627 0 0 0 0.1 0"/>
<feBlend mode="normal" in2="BackgroundImageFix" result="effect1_dropShadow"/>
<feBlend mode="normal" in="SourceGraphic" in2="effect1_dropShadow" result="shape"/>
</filter>
</defs>
</svg>
