<svg width="168" height="168" viewBox="0 0 168 168" fill="none" xmlns="http://www.w3.org/2000/svg">
<g filter="url(#filter0_d)">
<rect x="12.7627" y="107.355" width="100" height="100" rx="6" transform="rotate(-75 12.7627 107.355)" fill="white"/>
</g>
<path opacity="0.3" d="M76.9369 85.9107C76.1966 84.6183 76.64 82.9634 77.9273 82.2144C79.2145 81.4653 80.8582 81.9057 81.5985 83.1981L89.1808 96.4351C89.9211 97.7274 89.4777 99.3823 88.1904 100.131C86.9031 100.88 85.2595 100.44 84.5192 99.1477L76.9369 85.9107Z" fill="#324EA3"/>
<path fill-rule="evenodd" clip-rule="evenodd" d="M54.2139 63.8348C51.5064 73.9393 57.4472 84.3105 67.483 86.9996C77.5188 89.6887 87.8493 83.6774 90.5568 73.5729C93.2643 63.4684 87.3235 53.0972 77.2877 50.4081C67.2519 47.719 56.9214 53.7304 54.2139 63.8348ZM85.365 72.1817C83.4311 79.3992 76.0521 83.6931 68.8837 81.7723C61.7152 79.8515 57.4718 72.4435 59.4057 65.226C61.3396 58.0085 68.7186 53.7147 75.887 55.6355C83.0555 57.5562 87.2989 64.9643 85.365 72.1817Z" fill="#324EA3"/>
<defs>
<filter id="filter0_d" x="0.109375" y="0.110352" width="167.781" height="167.781" filterUnits="userSpaceOnUse" color-interpolation-filters="sRGB">
<feFlood flood-opacity="0" result="BackgroundImageFix"/>
<feColorMatrix in="SourceAlpha" type="matrix" values="0 0 0 0 0 0 0 0 0 0 0 0 0 0 0 0 0 0 127 0"/>
<feOffset dx="10" dy="12"/>
<feGaussianBlur stdDeviation="12"/>
<feColorMatrix type="matrix" values="0 0 0 0 0.313726 0 0 0 0 0.341176 0 0 0 0 0.368627 0 0 0 0.1 0"/>
<feBlend mode="normal" in2="BackgroundImageFix" result="effect1_dropShadow"/>
<feBlend mode="normal" in="SourceGraphic" in2="effect1_dropShadow" result="shape"/>
</filter>
</defs>
</svg>
