<svg width="58" height="58" viewBox="0 0 58 58" fill="none" xmlns="http://www.w3.org/2000/svg">
<rect width="58" height="58" rx="6.04167" fill="white"/>
<path opacity="0.3" d="M17.7191 42.8542C17.3397 42.8542 16.9604 42.7024 16.6569 42.399L13.6222 39.3642C13.0153 38.7573 13.0153 37.8469 13.6222 37.2399C14.2291 36.633 15.2154 36.633 15.7465 37.2399L17.7191 39.2125L22.7264 34.2052C23.3333 33.5983 24.2437 33.5983 24.8507 34.2052C25.4576 34.8122 25.4576 35.7226 24.8507 36.3295L18.7812 42.399C18.4778 42.7024 18.0984 42.8542 17.7191 42.8542Z" fill="#324EA3"/>
<path fill-rule="evenodd" clip-rule="evenodd" d="M16.333 21.0827C16.333 19.3338 17.7508 17.916 19.4997 17.916H41.6663C43.4152 17.916 44.833 19.3338 44.833 21.0827V35.3327C44.833 37.0816 43.4152 38.4993 41.6663 38.4993H30.557C30.1497 32.3101 25.0004 27.416 18.708 27.416C17.8947 27.416 17.1004 27.4978 16.333 27.6536V21.0827ZM40.3117 20.8288C40.8891 20.5179 41.6093 20.7339 41.9202 21.3114C42.2312 21.8888 42.0151 22.609 41.4377 22.9199L31.146 28.4616C30.7945 28.6508 30.3715 28.6508 30.02 28.4616L19.7283 22.9199C19.1509 22.609 18.9348 21.8888 19.2458 21.3114C19.5567 20.7339 20.2769 20.5179 20.8543 20.8288L30.583 26.0673L40.3117 20.8288Z" fill="#324EA3"/>
</svg>
