<svg width="48" height="48" viewBox="0 0 48 48" fill="none" xmlns="http://www.w3.org/2000/svg">
<rect width="48" height="48" rx="5" fill="#324EA3"/>
<path fill-rule="evenodd" clip-rule="evenodd" d="M23.9004 26.5003L26.4718 23.9289C27.1819 23.2188 27.358 22.1338 26.9088 21.2355L26.7631 20.9441C26.314 20.0458 26.49 18.9609 27.2002 18.2507L30.3885 15.0625C30.6163 14.8347 30.9856 14.8347 31.2134 15.0625C31.2578 15.1068 31.2947 15.158 31.3227 15.2141L32.6107 17.79C33.596 19.7606 33.2098 22.1407 31.6519 23.6986L24.6532 30.6972C22.9574 32.393 20.4491 32.9851 18.1739 32.2268L15.357 31.2878C15.0514 31.1859 14.8862 30.8556 14.9881 30.5499C15.0167 30.464 15.065 30.386 15.129 30.3219L18.2222 27.2288C18.9323 26.5186 20.0173 26.3425 20.9156 26.7917L21.207 26.9374C22.1053 27.3865 23.1902 27.2105 23.9004 26.5003Z" fill="white"/>
</svg>
