<svg width="50" height="50" viewBox="0 0 50 50" fill="none" xmlns="http://www.w3.org/2000/svg">
<g filter="url(#filter0_d)">
<path d="M6 6C6 4.89543 6.89543 4 8 4H38C39.1046 4 40 4.89543 40 6V36C40 37.1046 39.1046 38 38 38H8C6.89543 38 6 37.1046 6 36V6Z" fill="white"/>
</g>
<rect width="21.3333" height="4" rx="2" transform="matrix(-1 0 0 1 33.6665 11.6665)" fill="#324EA3"/>
<path opacity="0.3" fill-rule="evenodd" clip-rule="evenodd" d="M31.6665 18.333C32.7711 18.333 33.6665 19.2284 33.6665 20.333C33.6665 21.4376 32.7711 22.333 31.6665 22.333H19.3332C18.2286 22.333 17.3332 21.4376 17.3332 20.333C17.3332 19.2284 18.2286 18.333 19.3332 18.333H31.6665ZM31.6665 24.9997C32.7711 24.9997 33.6665 25.8951 33.6665 26.9997C33.6665 28.1042 32.7711 28.9997 31.6665 28.9997H24.3332C23.2286 28.9997 22.3332 28.1042 22.3332 26.9997C22.3332 25.8951 23.2286 24.9997 24.3332 24.9997H31.6665Z" fill="#324EA3"/>
<defs>
<filter id="filter0_d" x="0" y="0" width="50" height="50" filterUnits="userSpaceOnUse" color-interpolation-filters="sRGB">
<feFlood flood-opacity="0" result="BackgroundImageFix"/>
<feColorMatrix in="SourceAlpha" type="matrix" values="0 0 0 0 0 0 0 0 0 0 0 0 0 0 0 0 0 0 127 0"/>
<feOffset dx="2" dy="4"/>
<feGaussianBlur stdDeviation="4"/>
<feColorMatrix type="matrix" values="0 0 0 0 0 0 0 0 0 0 0 0 0 0 0 0 0 0 0.1 0"/>
<feBlend mode="normal" in2="BackgroundImageFix" result="effect1_dropShadow"/>
<feBlend mode="normal" in="SourceGraphic" in2="effect1_dropShadow" result="shape"/>
</filter>
</defs>
</svg>
