<svg width="124" height="40" viewBox="0 0 124 40" fill="none" xmlns="http://www.w3.org/2000/svg">
<g clip-path="url(#clip0)">
<g filter="url(#filter0_d)">
<rect width="124" height="40" rx="2" fill="white"/>
</g>
<path d="M42.6289 20.5635C41.5033 20.2399 40.6829 19.8434 40.168 19.374C39.6576 18.9001 39.4023 18.3167 39.4023 17.624C39.4023 16.8402 39.7145 16.193 40.3389 15.6826C40.9678 15.1676 41.7835 14.9102 42.7861 14.9102C43.4697 14.9102 44.0781 15.0423 44.6113 15.3066C45.1491 15.571 45.5638 15.9355 45.8555 16.4004C46.1517 16.8652 46.2998 17.3734 46.2998 17.9248H44.9805C44.9805 17.3232 44.7891 16.8516 44.4062 16.5098C44.0234 16.1634 43.4834 15.9902 42.7861 15.9902C42.139 15.9902 41.6331 16.1338 41.2686 16.4209C40.9085 16.7035 40.7285 17.0977 40.7285 17.6035C40.7285 18.0091 40.8994 18.3532 41.2412 18.6357C41.5876 18.9137 42.1732 19.1689 42.998 19.4014C43.8275 19.6338 44.4746 19.8913 44.9395 20.1738C45.4089 20.4518 45.7552 20.7777 45.9785 21.1514C46.2064 21.5251 46.3203 21.9648 46.3203 22.4707C46.3203 23.2773 46.0059 23.9245 45.377 24.4121C44.748 24.8952 43.9072 25.1367 42.8545 25.1367C42.1709 25.1367 41.5329 25.0068 40.9404 24.7471C40.348 24.4827 39.89 24.1227 39.5664 23.667C39.2474 23.2113 39.0879 22.694 39.0879 22.1152H40.4072C40.4072 22.7168 40.6283 23.193 41.0703 23.5439C41.5169 23.8903 42.1117 24.0635 42.8545 24.0635C43.5472 24.0635 44.0781 23.9222 44.4473 23.6396C44.8164 23.3571 45.001 22.972 45.001 22.4844C45.001 21.9967 44.8301 21.6208 44.4883 21.3564C44.1465 21.0876 43.5267 20.8232 42.6289 20.5635ZM49.417 25H48.1045V15.0469H49.417V25ZM59.1719 23.6943C58.8346 24.1774 58.363 24.5397 57.7568 24.7812C57.1553 25.0182 56.4535 25.1367 55.6514 25.1367C54.8402 25.1367 54.1201 24.9476 53.4912 24.5693C52.8623 24.1865 52.3747 23.6442 52.0283 22.9424C51.6865 22.2406 51.5111 21.4271 51.502 20.502V19.6338C51.502 18.1344 51.8506 16.9723 52.5479 16.1475C53.2497 15.3226 54.234 14.9102 55.501 14.9102C56.54 14.9102 57.3763 15.1768 58.0098 15.71C58.6432 16.2386 59.0306 16.9906 59.1719 17.9658H57.8594C57.6133 16.6488 56.8294 15.9902 55.5078 15.9902C54.6283 15.9902 53.9606 16.3001 53.5049 16.9199C53.0537 17.5352 52.8258 18.4284 52.8213 19.5996V20.4131C52.8213 21.5296 53.0765 22.4183 53.5869 23.0791C54.0973 23.7354 54.7878 24.0635 55.6582 24.0635C56.1504 24.0635 56.5811 24.0088 56.9502 23.8994C57.3193 23.79 57.6247 23.6055 57.8662 23.3457V21.1104H55.5625V20.0439H59.1719V23.6943ZM69.0156 25H67.6963L62.6855 17.3301V25H61.3662V15.0469H62.6855L67.71 22.751V15.0469H69.0156V25ZM76.2275 25H74.915V15.0469H76.2275V25ZM86.2832 25H84.9639L79.9531 17.3301V25H78.6338V15.0469H79.9531L84.9775 22.751V15.0469H86.2832V25Z" fill="#324EA3"/>
</g>
<defs>
<filter id="filter0_d" x="-4" y="-2" width="136" height="52" filterUnits="userSpaceOnUse" color-interpolation-filters="sRGB">
<feFlood flood-opacity="0" result="BackgroundImageFix"/>
<feColorMatrix in="SourceAlpha" type="matrix" values="0 0 0 0 0 0 0 0 0 0 0 0 0 0 0 0 0 0 127 0"/>
<feOffset dx="2" dy="4"/>
<feGaussianBlur stdDeviation="3"/>
<feColorMatrix type="matrix" values="0 0 0 0 0 0 0 0 0 0 0 0 0 0 0 0 0 0 0.05 0"/>
<feBlend mode="normal" in2="BackgroundImageFix" result="effect1_dropShadow"/>
<feBlend mode="normal" in="SourceGraphic" in2="effect1_dropShadow" result="shape"/>
</filter>
<clipPath id="clip0">
<rect width="124" height="40" fill="white"/>
</clipPath>
</defs>
</svg>
